<svg width="31" height="31" viewBox="0 0 31 31" fill="none" xmlns="http://www.w3.org/2000/svg">
<path d="M16.1916 5.80331L23.807 11.8722C23.9671 11.9995 24.0962 12.1603 24.1848 12.3428C24.2735 12.5253 24.3194 12.7249 24.3193 12.9271V23.1423C24.3193 23.5024 24.1735 23.8477 23.9138 24.1023C23.6541 24.357 23.3019 24.5 22.9347 24.5H7.70395C7.33673 24.5 6.98455 24.357 6.72488 24.1023C6.46521 23.8477 6.31934 23.5024 6.31934 23.1423V12.9271C6.31946 12.7252 6.36551 12.5258 6.45413 12.3436C6.54276 12.1613 6.67173 12.0007 6.83164 11.8735L14.447 5.80331C14.6937 5.60709 15.0017 5.5 15.3193 5.5C15.637 5.5 15.945 5.60709 16.1916 5.80331ZM22.9347 12.9271L15.3193 6.85688L7.70395 12.9257V23.1423H22.9347V12.9271Z" fill="#161616"/>
</svg>
