<svg version="1.1" id="Calque_1" xmlns="http://www.w3.org/2000/svg" xmlns:xlink="http://www.w3.org/1999/xlink" x="0px" y="0px"
	 width="113.558px" height="125.839px" viewBox="43.219 37.085 113.558 125.839"
	 enable-background="new 43.219 37.085 113.558 125.839" xml:space="preserve">
<g>
	<g>
		<g>

				<linearGradient id="SVGID_1_" gradientUnits="userSpaceOnUse" x1="544.8916" y1="35.7847" x2="704.3965" y2="35.7847" gradientTransform="matrix(0.6755 -0.1746 -0.1746 -0.6755 -314.7419 251.1134)">
				<stop  offset="0.0512" style="stop-color:#0095D6"/>
				<stop  offset="0.3612" style="stop-color:#0A76BC"/>
				<stop  offset="0.6712" style="stop-color:#15539E"/>
			</linearGradient>
			<path fill="url(#SVGID_1_)" d="M44.368,121.242c-0.509-1.934-0.837-3.922-1.012-5.931c-0.174-2.01-0.181-4.047-0.028-6.084
				c0.321-4.067,1.333-8.143,3.105-11.938c0.446-0.949,0.935-1.877,1.465-2.784c0.538-0.907,1.117-1.779,1.737-2.63
				c1.242-1.702,2.651-3.286,4.208-4.724c3.112-2.875,6.837-5.149,10.912-6.517c8.17-2.728,17.387-1.709,24.65,2.687
				c3.621,2.205,6.67,5.24,8.868,8.742c1.096,1.751,1.989,3.621,2.624,5.554c0.643,1.933,1.039,3.936,1.123,5.931
				c-0.606-1.905-1.381-3.712-2.323-5.407c-0.949-1.695-2.044-3.279-3.286-4.717c-2.477-2.888-5.477-5.247-8.791-6.872l-0.628-0.293
				l-0.314-0.146l-0.154-0.077l-0.16-0.063l-0.642-0.258L85.4,85.582c-0.105-0.042-0.209-0.09-0.321-0.119
				c-0.44-0.146-0.865-0.314-1.305-0.453c-0.439-0.126-0.879-0.265-1.326-0.384c-1.779-0.46-3.6-0.761-5.428-0.886
				c-3.656-0.244-7.347,0.195-10.772,1.34c-3.44,1.151-6.649,3.014-9.454,5.393c-1.402,1.193-2.707,2.512-3.9,3.928
				c-0.077,0.091-0.153,0.174-0.223,0.265l-0.216,0.272l-0.425,0.551c-0.07,0.091-0.147,0.182-0.216,0.272l-0.203,0.286
				c-0.132,0.188-0.272,0.377-0.405,0.565c-0.537,0.76-1.04,1.549-1.507,2.358c-1.884,3.238-3.237,6.831-4.096,10.584
				c-0.433,1.877-0.739,3.803-0.942,5.75C44.458,117.266,44.375,119.239,44.368,121.242z M144.148,85.107
				c0.467,0.167,0.948,0.342,1.457,0.488c0.51,0.146,1.047,0.272,1.599,0.342c0.551,0.063,1.116,0.091,1.702-0.014
				c-0.412-0.426-0.83-0.768-1.249-1.096c-0.419-0.328-0.837-0.635-1.284-0.921c-0.445-0.286-0.92-0.551-1.416-0.774h-0.007
				c0.37-0.363,0.761-0.719,1.151-1.082c0.404-0.384,0.823-0.753,1.229-1.144c0.411-0.391,0.83-0.782,1.248-1.207
				c-0.593,0.077-1.158,0.237-1.717,0.425c-0.558,0.188-1.088,0.426-1.611,0.684c-0.523,0.265-1.032,0.551-1.527,0.886
				c-0.496,0.342-0.977,0.705-1.445,1.2l-1.025,1.088l1.5,0.6C143.22,84.758,143.681,84.933,144.148,85.107z M148.362,100.841
				c-0.042-0.272-0.098-0.544-0.146-0.823c-0.021-0.14-0.056-0.272-0.084-0.412l-0.098-0.412c-0.077-0.272-0.146-0.544-0.23-0.816
				c-0.335-1.082-0.774-2.128-1.305-3.119c-1.061-1.988-2.442-3.739-3.894-5.31c-1.451-1.577-2.972-2.993-4.423-4.409
				c-0.362-0.356-0.719-0.705-1.075-1.061l-0.523-0.538l-0.258-0.265l-0.098-0.104c-0.027-0.028-0.056-0.056-0.084-0.091
				c-0.439-0.502-0.738-1.235-0.76-1.891c-0.008-0.328,0.035-0.635,0.146-0.893s0.293-0.475,0.559-0.663l0.104-0.07l0.112-0.063
				c0.034-0.021,0.077-0.042,0.118-0.056l0.063-0.028l0.029-0.014l0.02-0.007c0.119-0.049,0.266-0.084,0.42-0.098
				c0.32-0.028,0.67,0.063,0.928,0.216c0.133,0.077,0.236,0.174,0.32,0.286c0.021,0.021,0.049,0.07,0.07,0.112
				c0.027,0.042,0.049,0.091,0.063,0.133c0.021,0.042,0.042,0.09,0.056,0.132c0.021,0.042,0.035,0.091,0.049,0.133
				c0.112,0.349,0.098,0.697-0.098,1.012c-0.195,0.313-0.586,0.572-1.046,0.669c-0.461,0.112-0.977,0.077-1.479-0.083
				c0.404,0.335,0.928,0.565,1.507,0.614c0.286,0.021,0.586,0.007,0.887-0.077c0.299-0.083,0.592-0.23,0.851-0.446
				c0.133-0.105,0.244-0.237,0.349-0.377c0.098-0.14,0.182-0.3,0.244-0.46c0.133-0.328,0.175-0.684,0.16-1.019
				c0-0.084-0.006-0.167-0.02-0.251c-0.008-0.083-0.021-0.167-0.035-0.244c-0.014-0.083-0.028-0.161-0.057-0.237
				c-0.021-0.077-0.035-0.153-0.076-0.244c-0.126-0.363-0.342-0.684-0.6-0.949c-0.259-0.265-0.559-0.468-0.873-0.628
				c-0.32-0.161-0.656-0.265-1.012-0.328c-0.355-0.056-0.732-0.063-1.116,0.007l-0.069,0.014l-0.063,0.014l-0.126,0.028
				c-0.084,0.021-0.161,0.035-0.244,0.063c-0.084,0.028-0.167,0.049-0.245,0.077l-0.244,0.098c-0.327,0.146-0.648,0.328-0.934,0.572
				c-0.294,0.237-0.552,0.523-0.762,0.837c-0.426,0.628-0.655,1.354-0.725,2.051c-0.126,1.409,0.236,2.756,1.032,3.914
				c0.049,0.07,0.104,0.146,0.153,0.216c0.056,0.07,0.111,0.146,0.153,0.195l0.251,0.314c0.168,0.209,0.342,0.412,0.517,0.614
				c0.349,0.405,0.698,0.802,1.054,1.193c1.424,1.556,2.889,3.007,4.242,4.473c1.354,1.465,2.596,2.951,3.579,4.563
				c0.495,0.802,0.921,1.64,1.276,2.512c0.092,0.216,0.175,0.439,0.259,0.656c0.077,0.223,0.16,0.439,0.229,0.67
				c0.07,0.229,0.141,0.454,0.21,0.69l0.182,0.697c0.453,1.877,0.648,3.838,0.593,5.826c-0.027,0.998-0.125,1.996-0.279,3.008
				c-0.16,1.004-0.383,2.01-0.648,3.027c0.628-0.844,1.15-1.771,1.591-2.748c0.439-0.971,0.788-1.996,1.054-3.049
				c0.509-2.107,0.655-4.326,0.418-6.531L148.362,100.841z M107.071,99.396c0.426,1.033,1.005,2.01,1.695,2.91
				c0.698,0.899,1.515,1.729,2.435,2.441c0.922,0.719,1.947,1.318,3.043,1.779c2.184,0.921,4.604,1.305,7.025,1.061
				c1.207-0.119,2.414-0.412,3.58-0.873c0.578-0.229,1.144-0.516,1.688-0.836c0.545-0.328,1.061-0.698,1.549-1.117
				c0.971-0.837,1.808-1.849,2.422-2.973c0.621-1.123,1.032-2.337,1.248-3.558c0.23-1.249,0.225-2.526,0.028-3.747
				c-0.202-1.221-0.593-2.393-1.13-3.46s-1.207-2.051-1.982-2.917c-0.383-0.433-0.795-0.844-1.221-1.221
				c-0.432-0.376-0.879-0.732-1.346-1.053c-0.936-0.642-1.934-1.172-2.973-1.556c-1.039-0.391-2.121-0.649-3.195-0.718
				c0.955,0.502,1.849,1.06,2.665,1.695c0.405,0.314,0.802,0.642,1.172,0.991c0.37,0.342,0.726,0.698,1.061,1.074
				c0.67,0.74,1.257,1.535,1.751,2.365c0.496,0.831,0.9,1.696,1.193,2.575c0.286,0.879,0.468,1.772,0.517,2.651
				s-0.028,1.744-0.237,2.567c-0.217,0.852-0.53,1.654-0.963,2.373c-0.217,0.356-0.453,0.698-0.726,1.011
				c-0.265,0.321-0.558,0.614-0.879,0.887c-1.263,1.096-2.924,1.8-4.702,2.1c-1.779,0.301-3.685,0.209-5.498-0.265
				c-0.908-0.237-1.794-0.579-2.652-1.012c-0.432-0.216-0.844-0.468-1.256-0.733c-0.411-0.265-0.809-0.558-1.193-0.865
				c-0.773-0.62-1.5-1.332-2.155-2.121c-0.655-0.788-1.249-1.66-1.772-2.602C106.353,97.303,106.639,98.371,107.071,99.396z
				 M73.637,126.663c1.117-0.083,2.212-0.308,3.23-0.677c-1.082-0.153-2.114-0.342-3.112-0.621c-0.251-0.069-0.495-0.16-0.739-0.23
				c-0.119-0.041-0.245-0.069-0.363-0.118l-0.355-0.14c-0.119-0.049-0.237-0.091-0.356-0.133c-0.119-0.041-0.237-0.084-0.349-0.139
				l-0.684-0.308c-0.223-0.104-0.446-0.224-0.67-0.335l-0.328-0.168l-0.321-0.188l-0.321-0.182
				c-0.104-0.063-0.216-0.119-0.314-0.188c-0.202-0.132-0.412-0.265-0.614-0.397c-0.105-0.063-0.203-0.133-0.3-0.209l-0.293-0.217
				l-0.293-0.209c-0.098-0.07-0.188-0.154-0.279-0.23c-0.188-0.154-0.376-0.301-0.558-0.453c-0.174-0.161-0.355-0.321-0.53-0.482
				l-0.132-0.118c-0.042-0.042-0.084-0.083-0.125-0.126l-0.251-0.25l-0.251-0.252c-0.084-0.084-0.161-0.174-0.237-0.258
				l-0.467-0.523c-0.146-0.182-0.286-0.37-0.433-0.545c-0.154-0.174-0.272-0.369-0.405-0.558c-0.133-0.188-0.265-0.37-0.384-0.572
				c-0.119-0.195-0.244-0.391-0.363-0.586l-0.328-0.606c-0.119-0.195-0.202-0.412-0.307-0.621l-0.146-0.308
				c-0.049-0.104-0.091-0.216-0.133-0.321l-0.132-0.32c-0.042-0.105-0.091-0.209-0.133-0.321l-0.23-0.655
				c-0.042-0.105-0.07-0.217-0.105-0.328l-0.098-0.335l-0.098-0.328c-0.028-0.111-0.056-0.224-0.077-0.335
				c-0.049-0.223-0.119-0.446-0.161-0.677l-0.125-0.684c-0.042-0.23-0.063-0.46-0.098-0.69l-0.049-0.342l-0.028-0.35l-0.035-0.349
				c-0.014-0.118-0.021-0.229-0.021-0.349l-0.028-0.697c-0.014-0.936,0.035-1.863,0.14-2.799c0.125-0.928,0.3-1.849,0.544-2.77
				c0.258-0.921,0.565-1.828,0.928-2.735c0.377-0.9,0.81-1.786,1.284-2.666c0.481-0.872,1.019-1.723,1.598-2.574l0.446-0.628
				c0.146-0.217,0.314-0.405,0.46-0.621c0.3-0.426,0.649-0.81,0.97-1.228c0.677-0.802,1.389-1.591,2.128-2.4
				c-1.026,0.37-2.017,0.844-2.965,1.396c-0.949,0.558-1.856,1.2-2.728,1.905c-0.858,0.719-1.668,1.5-2.421,2.352
				c-0.747,0.858-1.43,1.772-2.044,2.749c-0.607,0.983-1.13,2.016-1.577,3.098c-0.426,1.088-0.774,2.226-1.012,3.384
				c-0.23,1.158-0.349,2.345-0.384,3.53l0.007,0.894c0,0.146,0.007,0.3,0.021,0.446l0.028,0.447l0.035,0.445l0.056,0.447
				l0.056,0.439c0.021,0.146,0.035,0.293,0.07,0.439c0.195,1.18,0.516,2.33,0.928,3.453l0.335,0.838
				c0.119,0.271,0.251,0.544,0.384,0.816c0.07,0.133,0.125,0.271,0.202,0.404l0.216,0.391l0.223,0.391
				c0.035,0.063,0.077,0.133,0.112,0.195l0.125,0.189l0.496,0.753c0.174,0.244,0.363,0.481,0.544,0.719
				c0.091,0.118,0.175,0.244,0.279,0.356l0.3,0.342c0.203,0.223,0.391,0.46,0.607,0.662c0.209,0.209,0.425,0.419,0.642,0.628
				c0.223,0.195,0.447,0.391,0.677,0.579c0.119,0.091,0.223,0.195,0.342,0.279l0.356,0.266l0.356,0.258l0.181,0.125l0.188,0.119
				c0.251,0.16,0.496,0.314,0.747,0.467c0.251,0.146,0.517,0.279,0.768,0.419c0.132,0.069,0.258,0.14,0.391,0.202l0.398,0.182
				l0.397,0.174c0.133,0.063,0.265,0.119,0.405,0.168c0.272,0.105,0.544,0.203,0.816,0.301c0.272,0.098,0.551,0.167,0.83,0.25
				l0.412,0.119l0.419,0.091l0.418,0.091c0.14,0.027,0.279,0.063,0.418,0.076C71.383,126.684,72.521,126.727,73.637,126.663z
				 M71.209,112.682c0.376,0.738,0.816,1.43,1.333,2.058c0.53,0.614,1.123,1.158,1.779,1.598c-0.377-0.69-0.705-1.382-0.97-2.072
				c-0.251-0.704-0.439-1.409-0.579-2.106c-0.125-0.713-0.188-1.417-0.202-2.107c0-0.697,0.056-1.389,0.153-2.059
				c0.112-0.67,0.279-1.326,0.496-1.946c0.216-0.621,0.509-1.222,0.83-1.8c0.663-1.152,1.514-2.191,2.505-3.098
				c0.991-0.908,2.121-1.675,3.342-2.282c1.214-0.607,2.54-1.054,3.921-1.36l0.523-0.112l0.53-0.091
				c0.174-0.035,0.356-0.056,0.53-0.077c0.181-0.021,0.356-0.056,0.537-0.07l0.544-0.056c0.181-0.014,0.363-0.021,0.544-0.035
				c0.091-0.007,0.182-0.014,0.272-0.021l0.272-0.007c0.181-0.007,0.37-0.014,0.551-0.014l0.558-0.007
				c0.188,0,0.37,0.014,0.558,0.014l0.279,0.007l0.279,0.014l0.565,0.028c0.761,0.049,1.521,0.132,2.31,0.216
				c-0.656-0.439-1.354-0.81-2.079-1.13c-0.732-0.314-1.486-0.579-2.268-0.789c-1.556-0.404-3.195-0.593-4.849-0.509
				c-1.654,0.084-3.321,0.426-4.898,1.067c-1.577,0.642-3.042,1.556-4.312,2.714c-1.27,1.158-2.337,2.561-3.077,4.13
				c-0.049,0.098-0.091,0.195-0.133,0.3l-0.125,0.301l-0.125,0.3l-0.105,0.307c-0.069,0.21-0.146,0.411-0.195,0.621l-0.16,0.635
				c-0.182,0.852-0.279,1.716-0.272,2.567c0.014,0.858,0.112,1.703,0.3,2.525C70.574,111.146,70.853,111.935,71.209,112.682z
				 M88.156,115.312V125.7h2.512v-4.207h3.293v-1.911h-3.293V117.3h4.263v-2.003h-6.775V115.312z M98.734,119.044v-1.542h-2.512
				v8.205h2.512v-3.732c0-0.677,0.181-1.158,0.551-1.438c0.37-0.286,0.886-0.426,1.549-0.426h0.719v-2.693
				c-0.58,0-1.117,0.146-1.612,0.439C99.452,118.15,99.048,118.542,98.734,119.044z M105.732,117.397
				c-0.678,0-1.285,0.167-1.814,0.509c-0.537,0.336-0.956,0.824-1.264,1.459c-0.307,0.635-0.46,1.381-0.46,2.239
				c0,0.852,0.153,1.599,0.46,2.233c0.308,0.635,0.732,1.123,1.264,1.465c0.529,0.335,1.137,0.51,1.814,0.51
				c0.627,0,1.164-0.141,1.618-0.426c0.453-0.287,0.781-0.67,0.997-1.158v1.486h2.498v-8.205h-2.498v1.485
				c-0.216-0.488-0.551-0.879-0.997-1.158C106.896,117.544,106.359,117.397,105.732,117.397z M106.541,119.603
				c0.53,0,0.963,0.181,1.298,0.537c0.335,0.355,0.509,0.845,0.509,1.465c0,0.607-0.167,1.096-0.509,1.458
				c-0.335,0.363-0.774,0.545-1.298,0.545c-0.537,0-0.97-0.175-1.298-0.53c-0.327-0.356-0.495-0.845-0.495-1.473
				s0.16-1.116,0.495-1.472C105.571,119.777,106.004,119.603,106.541,119.603z M117.781,117.412c-0.628,0-1.172,0.139-1.64,0.425
				s-0.816,0.67-1.054,1.158v-1.5h-2.512v8.205h2.512v-4.354c0-0.601,0.146-1.061,0.447-1.382c0.299-0.32,0.704-0.48,1.213-0.48
				c0.482,0,0.865,0.152,1.152,0.46c0.285,0.307,0.432,0.739,0.432,1.284v4.465h2.512v-4.766c0-1.096-0.279-1.961-0.83-2.588
				C119.47,117.726,118.723,117.412,117.781,117.412z M126.224,117.397c-0.802,0-1.521,0.167-2.149,0.509
				c-0.627,0.336-1.115,0.824-1.465,1.459c-0.349,0.635-0.523,1.381-0.523,2.239c0,0.852,0.175,1.599,0.53,2.233
				c0.356,0.635,0.837,1.123,1.466,1.465c0.621,0.335,1.332,0.51,2.135,0.51c1.061,0,1.946-0.293,2.658-0.873
				c0.719-0.586,1.165-1.381,1.354-2.4h-2.658c-0.076,0.356-0.237,0.629-0.488,0.824c-0.244,0.195-0.551,0.293-0.928,0.293
				c-0.439,0-0.803-0.175-1.089-0.523c-0.286-0.35-0.426-0.852-0.426-1.521c0-0.662,0.14-1.172,0.426-1.521s0.649-0.523,1.089-0.523
				c0.369,0,0.684,0.098,0.928,0.293s0.404,0.468,0.488,0.823h2.658c-0.188-1.019-0.635-1.82-1.354-2.4
				C128.163,117.69,127.277,117.397,126.224,117.397z M139.334,121.381c0-0.781-0.168-1.479-0.51-2.078
				c-0.342-0.601-0.816-1.068-1.43-1.402c-0.614-0.336-1.333-0.503-2.149-0.503c-0.802,0-1.521,0.167-2.149,0.509
				c-0.627,0.336-1.115,0.824-1.465,1.459c-0.349,0.635-0.523,1.381-0.523,2.239c0,0.852,0.175,1.599,0.53,2.233
				c0.356,0.635,0.837,1.123,1.466,1.465c0.621,0.335,1.332,0.51,2.135,0.51c0.684,0,1.312-0.133,1.869-0.391
				c0.559-0.259,1.02-0.621,1.382-1.075s0.601-0.97,0.705-1.549h-2.659c-0.076,0.293-0.236,0.537-0.48,0.719
				c-0.244,0.188-0.551,0.278-0.928,0.278c-0.439,0-0.803-0.132-1.089-0.404c-0.286-0.271-0.439-0.711-0.468-1.332h5.687
				C139.306,121.814,139.334,121.591,139.334,121.381z M136.787,120.998h-3.203c0.043-0.531,0.21-0.928,0.518-1.207
				c0.299-0.272,0.684-0.412,1.144-0.412c0.439,0,0.81,0.133,1.109,0.404C136.654,120.056,136.801,120.461,136.787,120.998z
				 M59.271,136.57c1.144,0,2.023-0.271,2.63-0.816c0.607-0.544,0.914-1.297,0.914-2.268c0-0.963-0.293-1.716-0.879-2.268
				c-0.586-0.551-1.472-0.83-2.658-0.83h-3.293v10.361h1.339v-4.172h1.947V136.57z M59.152,135.455h-1.835v-3.957h1.835
				c0.816,0,1.396,0.168,1.758,0.51c0.355,0.335,0.537,0.83,0.537,1.479c0,0.629-0.182,1.109-0.537,1.459
				C60.555,135.279,59.969,135.455,59.152,135.455z M67.678,132.572c-0.719,0-1.354,0.168-1.912,0.503s-0.998,0.816-1.319,1.444
				c-0.321,0.628-0.474,1.36-0.474,2.205c0,0.844,0.16,1.576,0.474,2.197c0.321,0.621,0.754,1.103,1.319,1.431
				c0.558,0.335,1.193,0.502,1.912,0.502c0.782,0,1.444-0.195,1.989-0.586c0.544-0.391,0.921-0.914,1.137-1.569v2.058h1.339v-8.072
				h-1.339v2.058c-0.216-0.655-0.593-1.179-1.137-1.569C69.129,132.768,68.46,132.572,67.678,132.572z M68.062,133.759
				c0.53,0,1.005,0.118,1.417,0.362c0.418,0.238,0.74,0.587,0.977,1.04c0.237,0.454,0.356,0.97,0.356,1.556
				s-0.119,1.104-0.356,1.549c-0.237,0.447-0.558,0.789-0.977,1.033s-0.886,0.369-1.417,0.369c-0.823,0-1.479-0.265-1.975-0.787
				c-0.495-0.523-0.739-1.25-0.739-2.17c0-0.922,0.244-1.647,0.739-2.17C66.576,134.023,67.239,133.759,68.062,133.759z
				 M75.618,134.303v-1.633h-1.339v8.073h1.339v-4.249c0-0.893,0.237-1.528,0.719-1.919c0.481-0.384,1.096-0.579,1.849-0.579h0.412
				v-1.458c-0.705,0-1.312,0.153-1.821,0.46C76.267,133.313,75.883,133.745,75.618,134.303z M83.23,132.572
				c-0.719,0-1.354,0.168-1.912,0.503s-0.998,0.816-1.319,1.444s-0.475,1.36-0.475,2.205c0,0.844,0.161,1.576,0.475,2.197
				c0.321,0.621,0.753,1.103,1.319,1.431c0.558,0.335,1.193,0.502,1.912,0.502c0.781,0,1.444-0.195,1.988-0.586
				c0.544-0.391,0.921-0.914,1.137-1.569v2.058h1.34v-8.072h-1.34v2.058c-0.216-0.655-0.593-1.179-1.137-1.569
				C84.675,132.768,84.012,132.572,83.23,132.572z M83.614,133.759c0.53,0,1.004,0.118,1.417,0.362
				c0.418,0.238,0.739,0.587,0.977,1.04c0.237,0.454,0.356,0.97,0.356,1.556s-0.119,1.104-0.356,1.549
				c-0.237,0.447-0.558,0.789-0.977,1.033c-0.419,0.244-0.886,0.369-1.417,0.369c-0.823,0-1.479-0.265-1.975-0.787
				c-0.496-0.523-0.74-1.25-0.74-2.17c0-0.922,0.244-1.647,0.74-2.17C82.128,134.023,82.791,133.759,83.614,133.759z
				 M89.831,129.865v10.878h1.34v-10.878H89.831z M92.371,132.67l3.398,7.94l-1.675,3.956h1.514l4.793-11.889h-1.486l-2.428,6.35
				l-2.616-6.35h-1.5V132.67z M111.537,132.545c-0.67,0-1.264,0.182-1.793,0.537c-0.531,0.355-0.908,0.865-1.131,1.521
				c-0.217-0.678-0.579-1.187-1.082-1.535c-0.502-0.35-1.102-0.523-1.785-0.523c-0.656,0-1.235,0.168-1.744,0.51
				c-0.51,0.342-0.852,0.822-1.055,1.465v-1.835h-1.339v8.072h1.339v-4.276c0-0.9,0.217-1.584,0.643-2.052s0.998-0.698,1.709-0.698
				c0.663,0,1.193,0.21,1.592,0.635c0.391,0.42,0.586,1.026,0.586,1.822v4.569h1.339v-4.276c0-0.9,0.216-1.584,0.642-2.052
				s0.991-0.698,1.695-0.698c0.678,0,1.207,0.21,1.598,0.635c0.392,0.426,0.58,1.026,0.58,1.822v4.569h1.34v-4.702
				c0-1.138-0.287-2.01-0.859-2.609C113.239,132.845,112.479,132.545,111.537,132.545z M121.193,132.572
				c-0.781,0-1.451,0.195-1.988,0.594c-0.545,0.397-0.922,0.921-1.124,1.563v-2.059h-1.339v11.89h1.339v-5.882
				c0.21,0.648,0.579,1.172,1.124,1.563c0.544,0.398,1.207,0.594,1.988,0.594c0.711,0,1.354-0.168,1.912-0.502
				c0.558-0.336,0.997-0.811,1.318-1.431c0.32-0.621,0.48-1.354,0.48-2.198s-0.16-1.576-0.48-2.205
				c-0.321-0.627-0.754-1.109-1.318-1.443C122.547,132.74,121.912,132.572,121.193,132.572z M120.816,133.759
				c0.83,0,1.493,0.265,1.988,0.788c0.496,0.523,0.74,1.25,0.74,2.17c0,0.922-0.244,1.646-0.74,2.17
				c-0.495,0.523-1.158,0.789-1.988,0.789c-0.523,0-0.99-0.126-1.41-0.37c-0.418-0.244-0.746-0.593-0.982-1.032
				c-0.238-0.447-0.356-0.963-0.356-1.549s0.118-1.109,0.356-1.557c0.236-0.453,0.564-0.795,0.982-1.039
				C119.826,133.885,120.293,133.759,120.816,133.759z M126.412,130.305c0,0.244,0.084,0.447,0.251,0.594
				c0.167,0.153,0.384,0.23,0.663,0.23c0.271,0,0.495-0.077,0.662-0.23c0.168-0.154,0.252-0.35,0.252-0.594
				s-0.084-0.445-0.252-0.592c-0.167-0.154-0.383-0.23-0.662-0.23c-0.272,0-0.496,0.076-0.663,0.23
				C126.496,129.865,126.412,130.061,126.412,130.305z M126.649,132.67v8.073h1.339v-8.073H126.649z M133.529,132.601
				c-0.719,0-1.361,0.175-1.94,0.517s-1.032,0.823-1.36,1.451c-0.328,0.621-0.496,1.347-0.496,2.17s0.161,1.549,0.496,2.17
				c0.328,0.621,0.781,1.102,1.36,1.444c0.579,0.335,1.228,0.509,1.94,0.509c0.732,0,1.367-0.188,1.891-0.558s0.906-0.88,1.15-1.515
				v5.791h1.34v-11.889h-1.34v1.912c-0.236-0.607-0.613-1.089-1.137-1.451C134.903,132.782,134.268,132.601,133.529,132.601z
				 M133.822,133.759c0.509,0,0.969,0.118,1.388,0.362c0.419,0.238,0.747,0.587,0.991,1.026c0.244,0.446,0.369,0.97,0.369,1.563
				c0,0.592-0.125,1.123-0.369,1.563c-0.244,0.446-0.579,0.788-0.991,1.025c-0.419,0.237-0.879,0.363-1.388,0.363
				c-0.816,0-1.473-0.259-1.969-0.775c-0.502-0.516-0.746-1.234-0.746-2.17c0-0.928,0.252-1.66,0.754-2.184
				C132.363,134.023,133.02,133.759,133.822,133.759z M145.871,132.67v4.291c0,0.914-0.223,1.605-0.662,2.08
				s-1.026,0.711-1.766,0.711c-0.705,0-1.264-0.216-1.675-0.655c-0.411-0.433-0.614-1.054-0.614-1.863v-4.569h-1.34v4.702
				c0,1.13,0.287,1.988,0.865,2.595c0.58,0.601,1.333,0.908,2.262,0.908c0.697,0,1.305-0.175,1.828-0.523
				c0.522-0.35,0.885-0.852,1.095-1.508v1.898h1.34v-8.072h-1.333V132.67z M156.776,136.257c0-0.677-0.153-1.291-0.46-1.849
				c-0.307-0.559-0.754-1.005-1.34-1.34s-1.27-0.502-2.051-0.502c-0.775,0-1.459,0.167-2.059,0.502s-1.068,0.816-1.402,1.444
				c-0.336,0.628-0.51,1.36-0.51,2.204c0,0.845,0.168,1.577,0.51,2.198c0.334,0.621,0.803,1.103,1.402,1.431
				c0.6,0.334,1.283,0.502,2.059,0.502c0.676,0,1.283-0.125,1.82-0.369s0.977-0.586,1.318-1.026c0.336-0.439,0.559-0.942,0.656-1.5
				h-1.424c-0.098,0.552-0.362,0.983-0.802,1.319c-0.433,0.327-0.978,0.494-1.626,0.494c-0.719,0-1.318-0.229-1.814-0.689
				c-0.494-0.461-0.753-1.152-0.787-2.072h6.453C156.763,136.787,156.776,136.543,156.776,136.257z M155.43,136.348h-5.156
				c0.043-0.879,0.308-1.549,0.81-2.01c0.503-0.453,1.116-0.684,1.849-0.684c0.461,0,0.887,0.098,1.277,0.293s0.697,0.496,0.928,0.9
				C155.36,135.252,155.458,135.748,155.43,136.348z M98.448,149.144c0,0,5.505,0.628,5.449,5.156
				c-0.063,5.254-6.021,7.591-6.021,7.591s3.74-3.816,3.292-8.1C100.834,150.588,98.448,149.144,98.448,149.144z M107.428,162.924
				c0.32-8.819,5.992-14.813,5.992-14.813c-6.027,2.742-7.179,9.057-7.179,9.057C105.801,159.902,107.428,162.924,107.428,162.924z"
				/>
		</g>
	</g>
	<g>
		<g>
			<path fill="#00A650" d="M107.008,56.898c3.789,4.166,8.395,6.984,13.885,8.247c2.882,0.663,5.799,0.816,8.631-0.279
				c3.21-1.242,4.725-3.81,4.348-7.229c-0.035-0.3-0.008-0.614-0.008-1.214c1.898,2.588,3.182,5.135,2.848,8.149
				c-0.343,3.077-2.359,4.793-5.213,5.651c-3.007,0.9-5.979,0.537-8.91-0.307c-5.316-1.528-9.838-4.34-13.277-8.714
				c-0.99-1.263-1.73-2.721-2.581-4.089C106.82,57.045,106.91,56.968,107.008,56.898z"/>
			<path fill="#106FB3" d="M100.527,47.982c-1.382,5.721-1.438,11.282,0.516,16.787c0.852,2.386,2.086,4.556,4.074,6.209
				c2.771,2.303,5.722,2.386,8.659,0.286c0.21-0.153,0.433-0.279,0.726-0.335c-1.458,3.084-3.209,5.847-6.9,6.586
				c-2.03,0.405-3.761-0.3-5.268-1.563c-3.042-2.546-4.41-6.021-5.114-9.782c-1.012-5.421-0.614-10.703,1.779-15.748
				c0.321-0.67,0.733-1.291,1.117-1.926C100.22,48.303,100.38,48.149,100.527,47.982z"/>
		</g>
		<path fill="#EF2A2E" d="M105.592,37.244c-5.714,1.619-10.64,4.319-14.512,8.763c-1.681,1.926-2.979,4.088-3.447,6.656
			c-0.656,3.572,0.733,6.217,4.033,7.758c0.237,0.112,0.46,0.245,0.656,0.475c-3.433,0.244-6.733,0.07-9.21-2.819
			c-1.36-1.583-1.598-3.454-1.228-5.407c0.74-3.935,3.112-6.858,6.077-9.342c4.263-3.572,9.119-5.84,14.742-6.224
			c0.747-0.049,1.5,0.007,2.247,0.028C105.16,37.132,105.376,37.202,105.592,37.244z"/>
	</g>
</g>
</svg>
