<?xml version="1.0" encoding="utf-8"?>
<!-- Generator: Adobe Illustrator 22.0.1, SVG Export Plug-In . SVG Version: 6.00 Build 0)  -->
<!DOCTYPE svg PUBLIC "-//W3C//DTD SVG 1.1//EN" "http://www.w3.org/Graphics/SVG/1.1/DTD/svg11.dtd">
<svg version="1.1" id="Calque_2" xmlns="http://www.w3.org/2000/svg" xmlns:xlink="http://www.w3.org/1999/xlink" x="0px" y="0px"
	 viewBox="0 0 290.6 30.9" style="enable-background:new 0 0 290.6 30.9;" xml:space="preserve">
<style type="text/css">
	.st0{fill:#E30613;}
	.st1{fill:#164194;}
</style>
<g>
	<path class="st0" d="M41.4,3.7c0-1.9,1.3-3.3,3.3-3.3c2,0,3.3,1.3,3.3,3.3v23.1c0,1.9-1.3,3.3-3.3,3.3c-2,0-3.3-1.3-3.3-3.3V3.7z"
		/>
	<path class="st0" d="M53.4,4.3c0-2.7,1.3-3.8,4.1-3.8c1.4,0,2.5,0.5,3.3,1.7l11.4,18.4h0.1v-17c0-2.1,1.2-3.1,3.1-3.1
		c1.9,0,3.1,1,3.1,3.1v22.5c0,2.6-1.1,4.1-3.9,4.1c-2.1,0-2.7-0.4-3.6-1.7L59.8,10.5h-0.1V27c0,2.1-1.2,3.1-3.1,3.1
		c-1.9,0-3.1-1-3.1-3.1V4.3z"/>
	<path class="st0" d="M88.9,6.5h-4.6c-1.9,0-3.4-1-3.4-2.7c0-1.8,1.5-2.7,3.4-2.7h15.8c1.9,0,3.4,1,3.4,2.7c0,1.8-1.5,2.7-3.4,2.7
		h-4.6v20.4c0,1.9-1.3,3.3-3.3,3.3c-2,0-3.3-1.3-3.3-3.3V6.5z"/>
	<path class="st0" d="M105.8,4.8c0-2.9,1.5-3.8,3.8-3.8h14.3c1.9,0,3.3,0.6,3.3,2.6s-1.4,2.6-3.3,2.6h-11.6v6.2h10
		c1.7,0,3.1,0.5,3.1,2.5c0,2-1.4,2.5-3.1,2.5h-10v6.9h11.9c1.9,0,3.3,0.6,3.3,2.6s-1.4,2.6-3.3,2.6h-14.6c-2.3,0-3.8-0.9-3.8-3.8
		V4.8z"/>
	<path class="st0" d="M136.9,13.7h5.5c2.5,0,4.9-0.6,4.9-3.9c0-3.1-1.9-3.9-4.7-3.9h-5.7V13.7z M130.4,4.8c0-2.9,1.5-3.8,3.8-3.8
		h9.8c7.8,0,9.8,4.3,9.8,8c0,3.1-1.8,6.2-4.9,6.9v0.1c3.3,0.5,3.9,2.9,3.9,5.8c0,3.3,0.9,4.5,0.9,5.9c0,1.5-1.6,2.5-3.1,2.5
		c-3.6,0-3.9-3.5-3.9-4.6c0-5-0.9-7-4.5-7h-5.4v8.4c0,1.9-1.3,3.3-3.3,3.3c-2,0-3.3-1.3-3.3-3.3V4.8z"/>
	<path class="st1" d="M243.1,13.7h5.5c2.5,0,4.9-0.6,4.9-3.9c0-3.1-1.9-3.9-4.7-3.9h-5.7V13.7z M236.6,4.8c0-2.9,1.5-3.8,3.8-3.8
		h9.8c7.8,0,9.8,4.3,9.8,8c0,3.1-1.8,6.2-4.9,6.9v0.1c3.3,0.5,3.9,2.9,3.9,5.8c0,3.3,0.9,4.5,0.9,5.9c0,1.5-1.6,2.5-3.1,2.5
		c-3.6,0-3.9-3.5-3.9-4.6c0-5-0.9-7-4.5-7h-5.4v8.4c0,1.9-1.3,3.3-3.3,3.3c-2,0-3.3-1.3-3.3-3.3V4.8z"/>
	<path class="st1" d="M173.2,13c6,1.4,7.5,4.9,7.5,8.2c0,5.2-3.9,9-11.8,9c-8.3,0-12-4.1-12-7.2c0-1.6,1.2-2.7,2.7-2.7
		c3.5,0,2.6,5.2,9.2,5.2c3.4,0,5.2-1.9,5.2-3.8c0-1.2-0.6-2.4-2.8-3l-7.4-1.9c-5.9-1.5-7-4.8-7-7.8c0-6.4,5.9-8.7,11.4-8.7
		c5.1,0,11.1,2.9,11.1,6.7c0,1.6-1.4,2.6-3,2.6c-3,0-2.5-4.3-8.6-4.3c-3,0-4.7,1.4-4.7,3.4s2.4,2.6,4.5,3.1L173.2,13z"/>
	<path class="st1" d="M190.1,14.1h5.1c2.6,0,4.6-1.6,4.6-4.1c0-2.9-2-4.1-5.2-4.1h-4.4V14.1z M183.6,4.8c0-2.9,1.5-3.8,3.8-3.8h9
		c5.5,0,9.9,2.7,9.9,9.1c0,5.2-3.6,9.1-9.9,9.1h-6.2v7.8c0,1.9-1.3,3.3-3.3,3.3c-2,0-3.3-1.3-3.3-3.3V4.8z"/>
	<path class="st1" d="M220.6,25c5.9,0,5.9-4.6,5.9-10.1s-0.6-9.4-5.9-9.4c-5.3,0-5.9,3.9-5.9,9.4S214.5,25,220.6,25 M220.6,0.3
		c9.4,0,12.5,6.2,12.5,14.6c0,8.1-2.7,15.4-12.5,15.4c-10.3,0-12.5-6.7-12.5-15.4C208.1,6.5,211.2,0.3,220.6,0.3"/>
	<path class="st1" d="M268.8,6.5h-4.6c-1.9,0-3.4-1-3.4-2.7c0-1.8,1.5-2.7,3.4-2.7h15.8c1.9,0,3.4,1,3.4,2.7c0,1.8-1.5,2.7-3.4,2.7
		h-4.6v20.4c0,1.9-1.3,3.3-3.3,3.3c-2,0-3.3-1.3-3.3-3.3V6.5z"/>
	<path class="st1" d="M287.2,3.5v-1h0.8c0.2,0,0.3,0,0.5,0.1c0.2,0.1,0.2,0.2,0.2,0.4c0,0.1-0.1,0.3-0.2,0.4
		c-0.2,0.1-0.4,0.2-0.6,0.2H287.2z M289.2,5.1l-0.7-1.3c0.4-0.1,0.6-0.4,0.6-0.7c0-0.2-0.1-0.5-0.4-0.6c-0.2-0.1-0.5-0.2-0.8-0.2
		h-1.3v2.9h0.4V3.8h0.9l0.6,1.2H289.2z"/>
	<path class="st1" d="M287.9,1.6c-1.2,0-2.1,0.9-2.1,2.1c0,1.2,0.9,2.1,2.1,2.1c1.2,0,2.1-0.9,2.1-2.1C290,2.5,289,1.6,287.9,1.6
		 M287.9,6.2c-1.4,0-2.5-1.1-2.5-2.5c0-1.4,1.1-2.5,2.5-2.5c1.4,0,2.5,1.1,2.5,2.5C290.4,5.1,289.3,6.2,287.9,6.2"/>
	<path class="st0" d="M0.6,7.1c0-3.5,2.9-6.4,6.4-6.4s6.4,2.9,6.4,6.4s-2.9,6.4-6.4,6.4S0.6,10.6,0.6,7.1"/>
	<path class="st1" d="M7,29.8c-0.9,0-1.6-0.8-1.6-1.7V17.6c0-1,0.7-1.7,1.6-1.7c10.1,0,10.9-13.7,25.4-13.7C33.2,2.2,34,3,34,3.9
		v10.4c0,1-0.7,1.7-1.6,1.7C22.5,16.1,21.9,29.8,7,29.8"/>
</g>
</svg>
