<?xml version="1.0" encoding="UTF-8"?>
<svg width="160px" height="90px" viewBox="0 0 201 55" version="1.1" xmlns="http://www.w3.org/2000/svg" xmlns:xlink="http://www.w3.org/1999/xlink">
    <title>01 atomes / 01 logo cosmos</title>
    <defs>
        <polygon id="path-1" points="0 54.65 201.052 54.65 201.052 0 0 0"></polygon>
    </defs>
    <g id="01-atomes-/-01-logo-cosmos" stroke="none" stroke-width="1" fill="none" fill-rule="evenodd">
        <polygon id="Fill-1" fill="#2D2D67" points="0.1116 42.3164 0.1116 43.5224 2.9346 43.5224 2.9346 51.9094 4.1956 51.9094 4.1956 43.5224 7.0326 43.5224 7.0326 42.3164"></polygon>
        <g id="Group-44">
            <path d="M12.9801,51.0455 C12.2761,51.7395 11.4221,52.0875 10.4171,52.0875 C9.4121,52.0875 8.5611,51.7395 7.8621,51.0455 C7.1631,50.3515 6.8131,49.4975 6.8131,48.4825 C6.8131,47.4685 7.1631,46.6145 7.8621,45.9205 C8.5611,45.2265 9.4121,44.8785 10.4171,44.8785 C11.4221,44.8785 12.2761,45.2265 12.9801,45.9205 C13.6841,46.6145 14.0351,47.4685 14.0351,48.4825 C14.0351,49.4975 13.6841,50.3515 12.9801,51.0455 M10.4171,50.9225 C11.1031,50.9225 11.6781,50.6895 12.1441,50.2235 C12.6101,49.7575 12.8431,49.1775 12.8431,48.4825 C12.8431,47.7885 12.6101,47.2085 12.1441,46.7425 C11.6781,46.2765 11.1031,46.0435 10.4171,46.0435 C9.7411,46.0435 9.1701,46.2765 8.7051,46.7425 C8.2381,47.2085 8.0061,47.7885 8.0061,48.4825 C8.0061,49.1775 8.2381,49.7575 8.7051,50.2235 C9.1701,50.6895 9.7411,50.9225 10.4171,50.9225" id="Fill-2" fill="#2D2D67"></path>
            <path d="M20.4489,45.0572 L21.6409,45.0572 L21.6409,51.9092 L20.4489,51.9092 L20.4489,50.9222 C19.9649,51.6992 19.2239,52.0872 18.2279,52.0872 C17.4249,52.0872 16.7809,51.8332 16.2959,51.3262 C15.8119,50.8202 15.5699,50.1322 15.5699,49.2642 L15.5699,45.0572 L16.7619,45.0572 L16.7619,49.1962 C16.7619,49.7532 16.9129,50.1842 17.2149,50.4902 C17.5159,50.7972 17.9319,50.9502 18.4619,50.9502 C19.0549,50.9502 19.5349,50.7652 19.8999,50.3942 C20.2659,50.0252 20.4489,49.4562 20.4489,48.6882 L20.4489,45.0572 Z" id="Fill-4" fill="#2D2D67"></path>
            <path d="M24.7379,46.8868 C24.7379,47.1458 24.8729,47.3538 25.1419,47.5098 C25.4099,47.6658 25.7309,47.7988 26.1039,47.9078 C26.4759,48.0178 26.8509,48.1278 27.2269,48.2388 C27.6039,48.3488 27.9229,48.5568 28.1839,48.8608 C28.4449,49.1638 28.5749,49.5548 28.5749,50.0318 C28.5749,50.6528 28.3359,51.1508 27.8559,51.5258 C27.3759,51.9008 26.7619,52.0878 26.0129,52.0878 C25.3459,52.0878 24.7749,51.9408 24.2999,51.6488 C23.8239,51.3568 23.4869,50.9688 23.2859,50.4838 L24.3129,49.8948 C24.4229,50.2228 24.6279,50.4838 24.9299,50.6758 C25.2319,50.8668 25.5919,50.9638 26.0129,50.9638 C26.4049,50.9638 26.7299,50.8878 26.9859,50.7378 C27.2409,50.5868 27.3689,50.3528 27.3689,50.0328 C27.3689,49.7678 27.2369,49.5568 26.9709,49.3968 C26.7059,49.2378 26.3869,49.1018 26.0149,48.9898 C25.6429,48.8788 25.2689,48.7648 24.8919,48.6528 C24.5149,48.5398 24.1949,48.3378 23.9289,48.0448 C23.6639,47.7528 23.5319,47.3778 23.5319,46.9208 C23.5319,46.3268 23.7629,45.8378 24.2239,45.4548 C24.6859,45.0708 25.2629,44.8788 25.9579,44.8788 C26.5149,44.8788 27.0099,45.0048 27.4449,45.2558 C27.8789,45.5068 28.2049,45.8558 28.4249,46.3038 L27.4239,46.8658 C27.1769,46.2818 26.6889,45.9898 25.9579,45.9898 C25.6199,45.9898 25.3319,46.0668 25.0939,46.2238 C24.8569,46.3798 24.7379,46.6008 24.7379,46.8868" id="Fill-6" fill="#2D2D67"></path>
            <mask id="mask-2" fill="white">
                <use xlink:href="#path-1"></use>
            </mask>
            <g id="Clip-9"></g>
            <polygon id="Fill-8" fill="#2D2D67" mask="url(#mask-2)" points="33.961 51.909 35.153 51.909 35.153 41.905 33.961 41.905"></polygon>
            <path d="M38.0856,49.0313 C38.2036,49.6433 38.4856,50.1183 38.9286,50.4563 C39.3716,50.7943 39.9176,50.9633 40.5656,50.9633 C41.4706,50.9633 42.1276,50.6303 42.5386,49.9633 L43.5536,50.5383 C42.8856,51.5713 41.8816,52.0873 40.5386,52.0873 C39.4516,52.0873 38.5666,51.7473 37.8866,51.0663 C37.2056,50.3853 36.8656,49.5243 36.8656,48.4833 C36.8656,47.4503 37.1996,46.5923 37.8666,45.9063 C38.5326,45.2213 39.3966,44.8793 40.4566,44.8793 C41.4606,44.8793 42.2806,45.2333 42.9166,45.9413 C43.5506,46.6493 43.8686,47.5013 43.8686,48.4973 C43.8686,48.6703 43.8556,48.8483 43.8276,49.0313 L38.0856,49.0313 Z M40.4566,46.0033 C39.8166,46.0033 39.2866,46.1833 38.8666,46.5443 C38.4456,46.9053 38.1856,47.3863 38.0856,47.9893 L42.6626,47.9893 C42.5626,47.3413 42.3066,46.8473 41.8956,46.5103 C41.4836,46.1723 41.0036,46.0033 40.4566,46.0033 L40.4566,46.0033 Z" id="Fill-10" fill="#2D2D67" mask="url(#mask-2)"></path>
            <path d="M46.2668,46.8868 C46.2668,47.1458 46.4018,47.3538 46.6698,47.5098 C46.9388,47.6658 47.2598,47.7988 47.6328,47.9078 C48.0048,48.0178 48.3788,48.1278 48.7558,48.2388 C49.1328,48.3488 49.4518,48.5568 49.7128,48.8608 C49.9738,49.1638 50.1038,49.5548 50.1038,50.0318 C50.1038,50.6528 49.8648,51.1508 49.3848,51.5258 C48.9048,51.9008 48.2898,52.0878 47.5408,52.0878 C46.8748,52.0878 46.3038,51.9408 45.8288,51.6488 C45.3528,51.3568 45.0148,50.9688 44.8138,50.4838 L45.8418,49.8948 C45.9518,50.2228 46.1568,50.4838 46.4588,50.6758 C46.7598,50.8668 47.1208,50.9638 47.5408,50.9638 C47.9338,50.9638 48.2588,50.8878 48.5148,50.7378 C48.7698,50.5868 48.8978,50.3528 48.8978,50.0328 C48.8978,49.7678 48.7658,49.5568 48.4998,49.3968 C48.2348,49.2378 47.9158,49.1018 47.5438,48.9898 C47.1718,48.8788 46.7968,48.7648 46.4208,48.6528 C46.0438,48.5398 45.7238,48.3378 45.4578,48.0448 C45.1928,47.7528 45.0608,47.3778 45.0608,46.9208 C45.0608,46.3268 45.2918,45.8378 45.7528,45.4548 C46.2138,45.0708 46.7918,44.8788 47.4868,44.8788 C48.0438,44.8788 48.5388,45.0048 48.9738,45.2558 C49.4078,45.5068 49.7338,45.8558 49.9538,46.3038 L48.9528,46.8658 C48.7058,46.2818 48.2168,45.9898 47.4868,45.9898 C47.1488,45.9898 46.8608,46.0668 46.6228,46.2238 C46.3858,46.3798 46.2668,46.6008 46.2668,46.8868" id="Fill-11" fill="#2D2D67" mask="url(#mask-2)"></path>
            <path d="M56.5177,46.8868 C56.5177,47.1458 56.6517,47.3538 56.9207,47.5098 C57.1897,47.6658 57.5107,47.7988 57.8837,47.9078 C58.2547,48.0178 58.6297,48.1278 59.0057,48.2388 C59.3827,48.3488 59.7027,48.5568 59.9627,48.8608 C60.2237,49.1638 60.3547,49.5548 60.3547,50.0318 C60.3547,50.6528 60.1147,51.1508 59.6357,51.5258 C59.1547,51.9008 58.5407,52.0878 57.7917,52.0878 C57.1247,52.0878 56.5547,51.9408 56.0787,51.6488 C55.6037,51.3568 55.2657,50.9688 55.0647,50.4838 L56.0927,49.8948 C56.2027,50.2228 56.4077,50.4838 56.7087,50.6758 C57.0107,50.8668 57.3717,50.9638 57.7917,50.9638 C58.1847,50.9638 58.5087,50.8878 58.7647,50.7378 C59.0207,50.5868 59.1487,50.3528 59.1487,50.0328 C59.1487,49.7678 59.0157,49.5568 58.7507,49.3968 C58.4857,49.2378 58.1667,49.1018 57.7947,48.9898 C57.4217,48.8788 57.0477,48.7648 56.6707,48.6528 C56.2947,48.5398 55.9747,48.3378 55.7087,48.0448 C55.4437,47.7528 55.3117,47.3778 55.3117,46.9208 C55.3117,46.3268 55.5417,45.8378 56.0037,45.4548 C56.4647,45.0708 57.0427,44.8788 57.7377,44.8788 C58.2937,44.8788 58.7897,45.0048 59.2237,45.2558 C59.6577,45.5068 59.9847,45.8558 60.2037,46.3038 L59.2037,46.8658 C58.9567,46.2818 58.4677,45.9898 57.7377,45.9898 C57.3987,45.9898 57.1107,46.0668 56.8737,46.2238 C56.6367,46.3798 56.5177,46.6008 56.5177,46.8868" id="Fill-12" fill="#2D2D67" mask="url(#mask-2)"></path>
            <path d="M65.8219,44.879 C66.7809,44.879 67.5989,45.229 68.2749,45.928 C68.9509,46.627 69.2889,47.478 69.2889,48.483 C69.2889,49.488 68.9509,50.34 68.2749,51.039 C67.5989,51.738 66.7809,52.087 65.8219,52.087 C64.6889,52.087 63.8259,51.635 63.2319,50.731 L63.2319,54.65 L62.0399,54.65 L62.0399,45.057 L63.2319,45.057 L63.2319,46.236 C63.8259,45.331 64.6889,44.879 65.8219,44.879 M65.6719,50.936 C66.3569,50.936 66.9319,50.701 67.3979,50.23 C67.8639,49.76 68.0969,49.178 68.0969,48.483 C68.0969,47.789 67.8639,47.207 67.3979,46.736 C66.9319,46.265 66.3569,46.03 65.6719,46.03 C64.9769,46.03 64.3969,46.265 63.9309,46.736 C63.4649,47.207 63.2319,47.789 63.2319,48.483 C63.2319,49.178 63.4649,49.76 63.9309,50.23 C64.3969,50.701 64.9769,50.936 65.6719,50.936" id="Fill-13" fill="#2D2D67" mask="url(#mask-2)"></path>
            <path d="M76.7716,51.0455 C76.0676,51.7395 75.2136,52.0875 74.2086,52.0875 C73.2036,52.0875 72.3526,51.7395 71.6536,51.0455 C70.9546,50.3515 70.6046,49.4975 70.6046,48.4825 C70.6046,47.4685 70.9546,46.6145 71.6536,45.9205 C72.3526,45.2265 73.2036,44.8785 74.2086,44.8785 C75.2136,44.8785 76.0676,45.2265 76.7716,45.9205 C77.4756,46.6145 77.8266,47.4685 77.8266,48.4825 C77.8266,49.4975 77.4756,50.3515 76.7716,51.0455 M74.2086,50.9225 C74.8946,50.9225 75.4696,50.6895 75.9356,50.2235 C76.4016,49.7575 76.6346,49.1775 76.6346,48.4825 C76.6346,47.7885 76.4016,47.2085 75.9356,46.7425 C75.4696,46.2765 74.8946,46.0435 74.2086,46.0435 C73.5326,46.0435 72.9616,46.2765 72.4966,46.7425 C72.0306,47.2085 71.7976,47.7885 71.7976,48.4825 C71.7976,49.1775 72.0306,49.7575 72.4966,50.2235 C72.9616,50.6895 73.5326,50.9225 74.2086,50.9225" id="Fill-14" fill="#2D2D67" mask="url(#mask-2)"></path>
            <path d="M80.7047,46.2086 C81.0967,45.3586 81.8097,44.9346 82.8427,44.9346 L82.8427,46.1806 C82.2577,46.1536 81.7547,46.3086 81.3347,46.6466 C80.9147,46.9846 80.7047,47.5286 80.7047,48.2776 L80.7047,51.9096 L79.5117,51.9096 L79.5117,45.0566 L80.7047,45.0566 L80.7047,46.2086 Z" id="Fill-15" fill="#2D2D67" mask="url(#mask-2)"></path>
            <path d="M88.173,46.2086 L86.35,46.2086 L86.35,49.9226 C86.35,50.2596 86.417,50.5006 86.549,50.6416 C86.681,50.7836 86.885,50.8556 87.159,50.8606 C87.433,50.8656 87.771,50.8586 88.173,50.8396 L88.173,51.9096 C87.131,52.0466 86.369,51.9616 85.884,51.6556 C85.401,51.3496 85.158,50.7716 85.158,49.9226 L85.158,46.2086 L83.802,46.2086 L83.802,45.0566 L85.158,45.0566 L85.158,43.4946 L86.35,43.1386 L86.35,45.0566 L88.173,45.0566 L88.173,46.2086 Z" id="Fill-16" fill="#2D2D67" mask="url(#mask-2)"></path>
            <path d="M90.5573,46.8868 C90.5573,47.1458 90.6923,47.3538 90.9613,47.5098 C91.2293,47.6658 91.5503,47.7988 91.9223,47.9078 C92.2953,48.0178 92.6703,48.1278 93.0463,48.2388 C93.4233,48.3488 93.7413,48.5568 94.0033,48.8608 C94.2633,49.1638 94.3943,49.5548 94.3943,50.0318 C94.3943,50.6528 94.1553,51.1508 93.6753,51.5258 C93.1953,51.9008 92.5803,52.0878 91.8313,52.0878 C91.1653,52.0878 90.5943,51.9408 90.1193,51.6488 C89.6433,51.3568 89.3063,50.9688 89.1053,50.4838 L90.1323,49.8948 C90.2423,50.2228 90.4473,50.4838 90.7483,50.6758 C91.0503,50.8668 91.4113,50.9638 91.8313,50.9638 C92.2243,50.9638 92.5493,50.8878 92.8053,50.7378 C93.0603,50.5868 93.1883,50.3528 93.1883,50.0328 C93.1883,49.7678 93.0553,49.5568 92.7913,49.3968 C92.5263,49.2378 92.2063,49.1018 91.8343,48.9898 C91.4623,48.8788 91.0883,48.7648 90.7113,48.6528 C90.3343,48.5398 90.0143,48.3378 89.7483,48.0448 C89.4833,47.7528 89.3513,47.3778 89.3513,46.9208 C89.3513,46.3268 89.5823,45.8378 90.0433,45.4548 C90.5053,45.0708 91.0823,44.8788 91.7763,44.8788 C92.3333,44.8788 92.8303,45.0048 93.2643,45.2558 C93.6973,45.5068 94.0243,45.8558 94.2443,46.3038 L93.2433,46.8658 C92.9963,46.2818 92.5083,45.9898 91.7763,45.9898 C91.4393,45.9898 91.1513,46.0668 90.9133,46.2238 C90.6763,46.3798 90.5573,46.6008 90.5573,46.8868" id="Fill-17" fill="#2D2D67" mask="url(#mask-2)"></path>
            <path d="M96.6837,52.0602 C96.4367,52.0602 96.2267,51.9732 96.0527,51.7992 C95.8787,51.6262 95.7927,51.4152 95.7927,51.1692 C95.7927,50.9222 95.8787,50.7122 96.0527,50.5392 C96.2267,50.3652 96.4367,50.2782 96.6837,50.2782 C96.9387,50.2782 97.1517,50.3652 97.3207,50.5392 C97.4897,50.7122 97.5747,50.9222 97.5747,51.1692 C97.5747,51.4152 97.4897,51.6262 97.3207,51.7992 C97.1517,51.9732 96.9387,52.0602 96.6837,52.0602" id="Fill-18" fill="#2D2D67" mask="url(#mask-2)"></path>
            <path d="M109.4279,51.1622 C108.7609,51.7792 107.8979,52.0872 106.8379,52.0872 C105.7779,52.0872 104.9119,51.7792 104.2409,51.1622 C103.5699,50.5452 103.2349,49.7212 103.2349,48.6882 L103.2349,42.3162 L104.5079,42.3162 L104.5079,48.6342 C104.5079,49.3092 104.7089,49.8472 105.1109,50.2442 C105.5129,50.6412 106.0879,50.8402 106.8379,50.8402 C107.5869,50.8402 108.1619,50.6412 108.5649,50.2442 C108.9669,49.8472 109.1679,49.3092 109.1679,48.6342 L109.1679,42.3162 L110.4279,42.3162 L110.4279,48.6882 C110.4279,49.7212 110.0949,50.5452 109.4279,51.1622" id="Fill-19" fill="#2D2D67" mask="url(#mask-2)"></path>
            <path d="M115.9372,44.879 C116.7412,44.879 117.3852,45.132 117.8692,45.64 C118.3542,46.147 118.5962,46.834 118.5962,47.702 L118.5962,51.909 L117.4032,51.909 L117.4032,47.771 C117.4032,47.213 117.2532,46.782 116.9512,46.476 C116.6492,46.17 116.2342,46.016 115.7042,46.016 C115.1102,46.016 114.6302,46.202 114.2652,46.572 C113.9002,46.941 113.7172,47.51 113.7172,48.277 L113.7172,51.909 L112.5252,51.909 L112.5252,45.057 L113.7172,45.057 L113.7172,46.044 C114.2012,45.268 114.9412,44.879 115.9372,44.879" id="Fill-20" fill="#2D2D67" mask="url(#mask-2)"></path>
            <path d="M125.2555,46.8868 C125.2555,47.1458 125.3895,47.3538 125.6595,47.5098 C125.9285,47.6658 126.2495,47.7988 126.6215,47.9078 C126.9935,48.0178 127.3685,48.1278 127.7445,48.2388 C128.1215,48.3488 128.4405,48.5568 128.7005,48.8608 C128.9615,49.1638 129.0925,49.5548 129.0925,50.0318 C129.0925,50.6528 128.8525,51.1508 128.3735,51.5258 C127.8945,51.9008 127.2785,52.0878 126.5305,52.0878 C125.8625,52.0878 125.2925,51.9408 124.8175,51.6488 C124.3415,51.3568 124.0035,50.9688 123.8025,50.4838 L124.8305,49.8948 C124.9405,50.2228 125.1455,50.4838 125.4475,50.6758 C125.7485,50.8668 126.1095,50.9638 126.5305,50.9638 C126.9225,50.9638 127.2475,50.8878 127.5035,50.7378 C127.7585,50.5868 127.8865,50.3528 127.8865,50.0328 C127.8865,49.7678 127.7535,49.5568 127.4885,49.3968 C127.2235,49.2378 126.9045,49.1018 126.5325,48.9898 C126.1605,48.8788 125.7865,48.7648 125.4095,48.6528 C125.0325,48.5398 124.7125,48.3378 124.4465,48.0448 C124.1825,47.7528 124.0495,47.3778 124.0495,46.9208 C124.0495,46.3268 124.2805,45.8378 124.7415,45.4548 C125.2035,45.0708 125.7805,44.8788 126.4755,44.8788 C127.0325,44.8788 127.5285,45.0048 127.9625,45.2558 C128.3965,45.5068 128.7225,45.8558 128.9415,46.3038 L127.9415,46.8658 C127.6955,46.2818 127.2065,45.9898 126.4755,45.9898 C126.1365,45.9898 125.8495,46.0668 125.6115,46.2238 C125.3745,46.3798 125.2555,46.6008 125.2555,46.8868" id="Fill-21" fill="#2D2D67" mask="url(#mask-2)"></path>
            <path d="M131.422,49.0313 C131.541,49.6433 131.822,50.1183 132.265,50.4563 C132.708,50.7943 133.254,50.9633 133.902,50.9633 C134.807,50.9633 135.464,50.6303 135.876,49.9633 L136.89,50.5383 C136.223,51.5713 135.218,52.0873 133.876,52.0873 C132.788,52.0873 131.904,51.7473 131.224,51.0663 C130.543,50.3853 130.203,49.5243 130.203,48.4833 C130.203,47.4503 130.536,46.5923 131.203,45.9063 C131.87,45.2213 132.733,44.8793 133.793,44.8793 C134.798,44.8793 135.618,45.2333 136.253,45.9413 C136.888,46.6493 137.206,47.5013 137.206,48.4973 C137.206,48.6703 137.192,48.8483 137.165,49.0313 L131.422,49.0313 Z M133.793,46.0033 C133.153,46.0033 132.624,46.1833 132.203,46.5443 C131.783,46.9053 131.523,47.3863 131.422,47.9893 L136,47.9893 C135.899,47.3413 135.643,46.8473 135.232,46.5103 C134.821,46.1723 134.341,46.0033 133.793,46.0033 L133.793,46.0033 Z" id="Fill-22" fill="#2D2D67" mask="url(#mask-2)"></path>
            <path d="M143.5778,45.0572 L144.7708,45.0572 L144.7708,51.9092 L143.5778,51.9092 L143.5778,50.9222 C143.0938,51.6992 142.3538,52.0872 141.3578,52.0872 C140.5538,52.0872 139.9098,51.8332 139.4258,51.3262 C138.9408,50.8202 138.6998,50.1322 138.6998,49.2642 L138.6998,45.0572 L139.8908,45.0572 L139.8908,49.1962 C139.8908,49.7532 140.0418,50.1842 140.3438,50.4902 C140.6448,50.7972 141.0608,50.9502 141.5908,50.9502 C142.1848,50.9502 142.6648,50.7652 143.0298,50.3942 C143.3948,50.0252 143.5778,49.4562 143.5778,48.6882 L143.5778,45.0572 Z" id="Fill-23" fill="#2D2D67" mask="url(#mask-2)"></path>
            <polygon id="Fill-24" fill="#2D2D67" mask="url(#mask-2)" points="146.853 51.909 148.044 51.909 148.044 41.905 146.853 41.905"></polygon>
            <path d="M158.5695,45.0572 L159.7625,45.0572 L159.7625,51.9092 L158.5695,51.9092 L158.5695,50.9222 C158.0855,51.6992 157.3455,52.0872 156.3495,52.0872 C155.5455,52.0872 154.9025,51.8332 154.4175,51.3262 C153.9335,50.8202 153.6915,50.1322 153.6915,49.2642 L153.6915,45.0572 L154.8835,45.0572 L154.8835,49.1962 C154.8835,49.7532 155.0335,50.1842 155.3355,50.4902 C155.6365,50.7972 156.0525,50.9502 156.5825,50.9502 C157.1765,50.9502 157.6565,50.7652 158.0215,50.3942 C158.3865,50.0252 158.5695,49.4562 158.5695,48.6882 L158.5695,45.0572 Z" id="Fill-25" fill="#2D2D67" mask="url(#mask-2)"></path>
            <path d="M165.258,44.879 C166.062,44.879 166.706,45.132 167.19,45.64 C167.674,46.147 167.916,46.834 167.916,47.702 L167.916,51.909 L166.724,51.909 L166.724,47.771 C166.724,47.213 166.573,46.782 166.271,46.476 C165.97,46.17 165.554,46.016 165.025,46.016 C164.43,46.016 163.951,46.202 163.586,46.572 C163.22,46.941 163.038,47.51 163.038,48.277 L163.038,51.909 L161.845,51.909 L161.845,45.057 L163.038,45.057 L163.038,46.044 C163.522,45.268 164.262,44.879 165.258,44.879" id="Fill-26" fill="#2D2D67" mask="url(#mask-2)"></path>
            <path d="M170.4513,43.8102 C170.2223,43.8102 170.0313,43.7322 169.8763,43.5772 C169.7203,43.4212 169.6423,43.2352 169.6423,43.0162 C169.6423,42.7962 169.7203,42.6062 169.8763,42.4472 C170.0313,42.2872 170.2223,42.2062 170.4513,42.2062 C170.6703,42.2062 170.8583,42.2872 171.0133,42.4472 C171.1683,42.6062 171.2453,42.7962 171.2453,43.0162 C171.2453,43.2352 171.1683,43.4212 171.0133,43.5772 C170.8583,43.7322 170.6703,43.8102 170.4513,43.8102 L170.4513,43.8102 Z M169.8483,51.9092 L171.0403,51.9092 L171.0403,45.0572 L169.8483,45.0572 L169.8483,51.9092 Z" id="Fill-27" fill="#2D2D67" mask="url(#mask-2)"></path>
            <polygon id="Fill-28" fill="#2D2D67" mask="url(#mask-2)" points="177.9333 45.0572 179.2223 45.0572 176.4803 51.9092 175.0833 51.9092 172.3423 45.0572 173.6313 45.0572 175.7823 50.6202"></polygon>
            <path d="M181.0714,49.0313 C181.1904,49.6433 181.4714,50.1183 181.9144,50.4563 C182.3574,50.7943 182.9034,50.9633 183.5514,50.9633 C184.4564,50.9633 185.1134,50.6303 185.5254,49.9633 L186.5394,50.5383 C185.8724,51.5713 184.8674,52.0873 183.5254,52.0873 C182.4374,52.0873 181.5534,51.7473 180.8734,51.0663 C180.1924,50.3853 179.8524,49.5243 179.8524,48.4833 C179.8524,47.4503 180.1854,46.5923 180.8524,45.9063 C181.5194,45.2213 182.3824,44.8793 183.4424,44.8793 C184.4474,44.8793 185.2674,45.2333 185.9024,45.9413 C186.5374,46.6493 186.8554,47.5013 186.8554,48.4973 C186.8554,48.6703 186.8414,48.8483 186.8144,49.0313 L181.0714,49.0313 Z M183.4424,46.0033 C182.8024,46.0033 182.2734,46.1833 181.8524,46.5443 C181.4324,46.9053 181.1724,47.3863 181.0714,47.9893 L185.6494,47.9893 C185.5484,47.3413 185.2924,46.8473 184.8814,46.5103 C184.4704,46.1723 183.9904,46.0033 183.4424,46.0033 L183.4424,46.0033 Z" id="Fill-29" fill="#2D2D67" mask="url(#mask-2)"></path>
            <path d="M189.6911,46.2086 C190.0841,45.3586 190.7961,44.9346 191.8291,44.9346 L191.8291,46.1806 C191.2441,46.1536 190.7421,46.3086 190.3221,46.6466 C189.9011,46.9846 189.6911,47.5286 189.6911,48.2776 L189.6911,51.9096 L188.5001,51.9096 L188.5001,45.0566 L189.6911,45.0566 L189.6911,46.2086 Z" id="Fill-30" fill="#2D2D67" mask="url(#mask-2)"></path>
            <path d="M194.0348,46.8868 C194.0348,47.1458 194.1698,47.3538 194.4388,47.5098 C194.7068,47.6658 195.0288,47.7988 195.4008,47.9078 C195.7728,48.0178 196.1468,48.1278 196.5238,48.2388 C196.9008,48.3488 197.2198,48.5568 197.4808,48.8608 C197.7418,49.1638 197.8718,49.5548 197.8718,50.0318 C197.8718,50.6528 197.6328,51.1508 197.1528,51.5258 C196.6728,51.9008 196.0588,52.0878 195.3088,52.0878 C194.6428,52.0878 194.0718,51.9408 193.5968,51.6488 C193.1208,51.3568 192.7828,50.9688 192.5818,50.4838 L193.6108,49.8948 C193.7208,50.2228 193.9248,50.4838 194.2268,50.6758 C194.5278,50.8668 194.8888,50.9638 195.3088,50.9638 C195.7018,50.9638 196.0268,50.8878 196.2828,50.7378 C196.5378,50.5868 196.6668,50.3528 196.6668,50.0328 C196.6668,49.7678 196.5338,49.5568 196.2688,49.3968 C196.0038,49.2378 195.6848,49.1018 195.3118,48.9898 C194.9398,48.8788 194.5648,48.7648 194.1888,48.6528 C193.8118,48.5398 193.4918,48.3378 193.2268,48.0448 C192.9608,47.7528 192.8288,47.3778 192.8288,46.9208 C192.8288,46.3268 193.0598,45.8378 193.5218,45.4548 C193.9828,45.0708 194.5598,44.8788 195.2548,44.8788 C195.8118,44.8788 196.3078,45.0048 196.7418,45.2558 C197.1758,45.5068 197.5018,45.8558 197.7218,46.3038 L196.7218,46.8658 C196.4738,46.2818 195.9858,45.9898 195.2548,45.9898 C194.9168,45.9898 194.6288,46.0668 194.3908,46.2238 C194.1538,46.3798 194.0348,46.6008 194.0348,46.8868" id="Fill-31" fill="#2D2D67" mask="url(#mask-2)"></path>
            <path d="M200.1613,52.0602 C199.9143,52.0602 199.7043,51.9732 199.5313,51.7992 C199.3573,51.6262 199.2703,51.4152 199.2703,51.1692 C199.2703,50.9222 199.3573,50.7122 199.5313,50.5392 C199.7043,50.3652 199.9143,50.2782 200.1613,50.2782 C200.4163,50.2782 200.6293,50.3652 200.7983,50.5392 C200.9673,50.7122 201.0513,50.9222 201.0513,51.1692 C201.0513,51.4152 200.9673,51.6262 200.7983,51.7992 C200.6293,51.9732 200.4163,52.0602 200.1613,52.0602" id="Fill-32" fill="#2D2D67" mask="url(#mask-2)"></path>
            <path d="M7.7091,28.8341 C5.3491,27.4451 3.4741,25.5631 2.0841,23.1891 C0.6941,20.8151 0.0001,18.2251 0.0001,15.4181 C0.0001,12.6131 0.6941,10.0301 2.0841,7.6691 C3.4741,5.3081 5.3491,3.4391 7.7091,2.0631 C10.0701,0.6881 12.6401,0.0001 15.4191,0.0001 C17.7121,0.0001 19.8771,0.4791 21.9141,1.4371 C23.9511,2.3941 25.6841,3.7231 27.1141,5.4231 L22.6631,9.2671 C21.7721,8.1891 20.7001,7.3451 19.4461,6.7381 C18.1911,6.1301 16.8491,5.8271 15.4191,5.8271 C13.6921,5.8271 12.1011,6.2591 10.6441,7.1231 C9.1871,7.9861 8.0261,9.1531 7.1631,10.6231 C6.2991,12.0941 5.8681,13.6921 5.8681,15.4181 C5.8681,17.1461 6.2991,18.7511 7.1631,20.2341 C8.0261,21.7191 9.1871,22.8991 10.6441,23.7751 C12.1011,24.6531 13.6921,25.0911 15.4191,25.0911 C16.9831,25.0911 18.4341,24.7541 19.7691,24.0791 C21.1051,23.4051 22.2181,22.4601 23.1081,21.2461 L27.7631,24.8081 C26.3591,26.7231 24.5781,28.2211 22.4201,29.3001 C20.2611,30.3791 17.9281,30.9181 15.4191,30.9181 C12.6401,30.9181 10.0701,30.2251 7.7091,28.8341" id="Fill-33" fill="#2D2D67" mask="url(#mask-2)"></path>
            <path d="M68.6227,27.7213 L71.0517,22.4203 C74.7477,24.2013 78.5787,25.0913 82.5447,25.0913 C85.0257,25.0913 86.9147,24.7873 88.2107,24.1803 C89.5047,23.5733 90.1527,22.7303 90.1527,21.6513 C90.1527,20.7343 89.8347,20.0333 89.2017,19.5463 C88.5667,19.0613 87.7507,18.7113 86.7527,18.4943 C85.7547,18.2793 84.3927,18.0763 82.6657,17.8873 C79.8597,17.5633 77.5997,17.1993 75.8877,16.7953 C74.1727,16.3893 72.6627,15.6013 71.3537,14.4273 C70.0457,13.2543 69.3917,11.5473 69.3917,9.3073 C69.3917,7.4193 69.9787,5.7743 71.1517,4.3703 C72.3257,2.9683 73.9367,1.8953 75.9887,1.1533 C78.0387,0.4113 80.3187,0.0403 82.8277,0.0403 C84.9857,0.0403 87.1507,0.2493 89.3237,0.6673 C91.4937,1.0863 93.5117,1.6863 95.3727,2.4683 L92.9847,7.7293 C89.5317,6.3263 86.1457,5.6253 82.8277,5.6253 C80.4257,5.6253 78.5917,5.9023 77.3237,6.4543 C76.0557,7.0083 75.4217,7.9593 75.4217,9.3073 C75.4217,10.0903 75.7667,10.6903 76.4537,11.1083 C77.1417,11.5273 77.9437,11.8173 78.8617,11.9793 C79.7787,12.1413 81.0607,12.3163 82.7057,12.5053 C85.3497,12.7753 87.6087,13.1593 89.4857,13.6583 C91.3597,14.1583 92.9517,15.0413 94.2597,16.3093 C95.5687,17.5773 96.2237,19.3583 96.2237,21.6513 C96.2237,23.5133 95.6157,25.1523 94.4017,26.5683 C93.1877,27.9843 91.5417,29.0713 89.4647,29.8253 C87.3867,30.5803 85.0807,30.9593 82.5447,30.9593 C77.4987,30.9593 72.8587,29.8803 68.6227,27.7213" id="Fill-34" fill="#2D2D67" mask="url(#mask-2)"></path>
            <path d="M131.0524,0.9708 C131.6054,1.5378 131.8814,2.2128 131.8814,2.9948 L131.8814,30.9608 L126.0144,30.9608 L126.0144,11.1698 L116.9074,23.2698 L107.8024,11.1698 L107.8024,30.9608 L101.9344,30.9608 L101.9344,2.9948 C101.9344,2.2128 102.2174,1.5378 102.7844,0.9708 C103.3504,0.4048 104.0254,0.1208 104.8084,0.1208 C105.6434,0.1208 106.3724,0.4718 106.9934,1.1738 L116.9074,14.0838 L126.8234,1.1738 C127.4434,0.4718 128.1724,0.1208 129.0084,0.1208 C129.8184,0.1208 130.4994,0.4048 131.0524,0.9708" id="Fill-35" fill="#2D2D67" mask="url(#mask-2)"></path>
            <path d="M145.3034,28.8341 C142.9434,27.4451 141.0684,25.5631 139.6784,23.1891 C138.2884,20.8151 137.5944,18.2251 137.5944,15.4181 C137.5944,12.6131 138.2884,10.0301 139.6784,7.6691 C141.0684,5.3081 142.9434,3.4391 145.3034,2.0631 C147.6644,0.6881 150.2344,0.0001 153.0134,0.0001 C155.7654,0.0001 158.3214,0.6821 160.6824,2.0431 C163.0424,3.4061 164.9174,5.2611 166.3074,7.6081 C167.6974,9.9551 168.3914,12.5591 168.3914,15.4181 C168.3914,18.2251 167.7044,20.8151 166.3274,23.1891 C164.9514,25.5631 163.0834,27.4451 160.7224,28.8341 C158.3624,30.2251 155.7914,30.9181 153.0134,30.9181 C150.2344,30.9181 147.6644,30.2251 145.3034,28.8341 M157.7884,23.7951 C159.2454,22.9331 160.4054,21.7581 161.2694,20.2751 C162.1324,18.7911 162.5644,17.1721 162.5644,15.4181 C162.5644,13.6921 162.1324,12.0941 161.2694,10.6231 C160.4054,9.1531 159.2454,7.9861 157.7884,7.1231 C156.3324,6.2591 154.7404,5.8271 153.0134,5.8271 C151.2864,5.8271 149.6954,6.2591 148.2384,7.1231 C146.7814,7.9861 145.6204,9.1531 144.7574,10.6231 C143.8934,12.0941 143.4624,13.6921 143.4624,15.4181 C143.4624,17.1461 143.8934,18.7511 144.7574,20.2341 C145.6204,21.7191 146.7814,22.8991 148.2384,23.7751 C149.6954,24.6531 151.2864,25.0911 153.0134,25.0911 C154.7404,25.0911 156.3324,24.6601 157.7884,23.7951" id="Fill-36" fill="#2D2D67" mask="url(#mask-2)"></path>
            <path d="M173.4406,27.7213 L175.8686,22.4203 C179.5656,24.2013 183.3966,25.0913 187.3626,25.0913 C189.8436,25.0913 191.7326,24.7873 193.0286,24.1803 C194.3226,23.5733 194.9706,22.7303 194.9706,21.6513 C194.9706,20.7343 194.6526,20.0333 194.0196,19.5463 C193.3846,19.0613 192.5686,18.7113 191.5706,18.4943 C190.5726,18.2793 189.2106,18.0763 187.4836,17.8873 C184.6776,17.5633 182.4176,17.1993 180.7056,16.7953 C178.9906,16.3893 177.4806,15.6013 176.1716,14.4273 C174.8626,13.2543 174.2096,11.5473 174.2096,9.3073 C174.2096,7.4193 174.7956,5.7743 175.9696,4.3703 C177.1436,2.9683 178.7546,1.8953 180.8066,1.1533 C182.8566,0.4113 185.1366,0.0403 187.6456,0.0403 C189.8036,0.0403 191.9686,0.2493 194.1416,0.6673 C196.3116,1.0863 198.3296,1.6863 200.1906,2.4683 L197.8026,7.7293 C194.3496,6.3263 190.9636,5.6253 187.6456,5.6253 C185.2436,5.6253 183.4096,5.9023 182.1416,6.4543 C180.8726,7.0083 180.2396,7.9593 180.2396,9.3073 C180.2396,10.0903 180.5846,10.6903 181.2716,11.1083 C181.9596,11.5273 182.7616,11.8173 183.6796,11.9793 C184.5966,12.1413 185.8786,12.3163 187.5236,12.5053 C190.1676,12.7753 192.4266,13.1593 194.3036,13.6583 C196.1776,14.1583 197.7696,15.0413 199.0776,16.3093 C200.3866,17.5773 201.0416,19.3583 201.0416,21.6513 C201.0416,23.5133 200.4336,25.1523 199.2196,26.5683 C198.0056,27.9843 196.3596,29.0713 194.2826,29.8253 C192.2046,30.5803 189.8986,30.9593 187.3626,30.9593 C182.3166,30.9593 177.6766,29.8803 173.4406,27.7213" id="Fill-37" fill="#2D2D67" mask="url(#mask-2)"></path>
            <path d="M63.4211,18.1495 C62.1611,25.4135 55.8321,30.9365 48.2021,30.9365 C47.3771,30.9365 46.5661,30.8715 45.7761,30.7465 C52.2651,30.0115 57.6731,25.7385 60.0341,19.9055 C61.2351,19.4455 62.3701,18.8545 63.4211,18.1495" id="Fill-38" fill="#2D2D67" mask="url(#mask-2)"></path>
            <path d="M63.651,15.4879 C63.651,16.3939 63.571,17.2839 63.421,18.1499 C62.371,18.8549 61.234,19.4449 60.034,19.9059 C60.854,17.8789 61.305,15.6679 61.305,13.3459 C61.305,10.7429 60.737,8.2759 59.72,6.0559 C59.577,5.7449 59.989,5.4889 60.206,5.7559 C62.36,8.4119 63.651,11.7989 63.651,15.4879" id="Fill-39" fill="#E73D3E" mask="url(#mask-2)"></path>
            <path d="M58.1891,4.1651 C50.8761,5.1091 44.9811,10.5811 43.4041,17.6791 C39.5961,14.8751 36.9691,10.5611 36.4061,5.6171 C36.3991,5.5571 36.4181,5.4951 36.4581,5.4491 C39.2881,2.1391 43.4991,0.0391 48.2021,0.0391 C52.0641,0.0391 55.5971,1.4571 58.3061,3.7971 C58.4441,3.9161 58.3701,4.1421 58.1891,4.1651" id="Fill-40" fill="#E73D3E" mask="url(#mask-2)"></path>
            <path d="M45.6354,30.7218 C38.3214,29.5008 32.7534,23.1478 32.7534,15.4878 C32.7534,11.6908 34.1244,8.2138 36.3954,5.5218 C36.9354,10.5048 39.5724,14.8578 43.4044,17.6788 C43.1344,18.8998 42.9894,20.1758 42.9894,21.4808 C42.9894,24.8738 43.9594,28.0408 45.6354,30.7218" id="Fill-41" fill="#2D2D67" mask="url(#mask-2)"></path>
            <path d="M60.0343,19.9054 C57.6733,25.7384 52.2643,30.0114 45.7763,30.7464 C45.7253,30.7414 45.6803,30.7314 45.6353,30.7214 C43.9593,28.0404 42.9893,24.8734 42.9893,21.4814 C42.9893,20.1754 43.1343,18.9004 43.4043,17.6794 C46.3013,19.8154 49.8783,21.0714 53.7503,21.0714 C55.9663,21.0714 58.0823,20.6604 60.0343,19.9054" id="Fill-42" fill="#6DB1E2" mask="url(#mask-2)"></path>
            <path d="M55.9196,12.2804 L57.2036,12.6174 C57.4576,12.6844 57.4576,13.0454 57.2036,13.1114 L55.9196,13.4484 C55.5526,13.5454 55.2666,13.8314 55.1696,14.1984 L54.8326,15.4824 C54.7656,15.7374 54.4046,15.7374 54.3376,15.4824 L54.0016,14.1984 C53.9046,13.8314 53.6186,13.5454 53.2516,13.4484 L51.9676,13.1114 C51.7126,13.0454 51.7126,12.6844 51.9676,12.6174 L53.2516,12.2804 C53.6186,12.1834 53.9046,11.8974 54.0016,11.5304 L54.3376,10.2464 C54.4046,9.9924 54.7656,9.9924 54.8326,10.2464 L55.1696,11.5304 C55.2666,11.8974 55.5526,12.1834 55.9196,12.2804" id="Fill-43" fill="#2D2D67" mask="url(#mask-2)"></path>
        </g>
    </g>
</svg>